<svg width="48" height="48" viewBox="0 0 48 48" fill="none" xmlns="http://www.w3.org/2000/svg">
<rect width="48" height="48" rx="24" fill="#EBEEF5"/>
<path fill-rule="evenodd" clip-rule="evenodd" d="M25.9712 17.5963L31.7347 23.3599C32.0884 23.7136 32.0884 24.287 31.7347 24.6407L25.9712 30.4043C25.6175 30.758 25.044 30.758 24.6904 30.4043C24.3367 30.0506 24.3367 29.4772 24.6904 29.1235L28.9079 24.906L16.9057 24.906C16.4055 24.906 16 24.5005 16 24.0003C16 23.5001 16.4055 23.0946 16.9057 23.0946L28.9079 23.0946L24.6904 18.8771C24.3367 18.5234 24.3367 17.95 24.6904 17.5963C25.044 17.2426 25.6175 17.2426 25.9712 17.5963Z" fill="#666666"/>
</svg>
