<svg width="48" height="48" viewBox="0 0 48 48" fill="none" xmlns="http://www.w3.org/2000/svg">
<rect width="48" height="48" rx="24" transform="matrix(-1 0 0 1 48 0)" fill="#EBEEF5"/>
<path fill-rule="evenodd" clip-rule="evenodd" d="M22.0288 17.5963L16.2653 23.3599C15.9116 23.7136 15.9116 24.287 16.2653 24.6407L22.0288 30.4043C22.3825 30.758 22.956 30.758 23.3096 30.4043C23.6633 30.0506 23.6633 29.4772 23.3096 29.1235L19.0921 24.906L31.0943 24.906C31.5945 24.906 32 24.5005 32 24.0003C32 23.5001 31.5945 23.0946 31.0943 23.0946L19.0921 23.0946L23.3096 18.8771C23.6633 18.5234 23.6633 17.95 23.3096 17.5963C22.956 17.2426 22.3825 17.2426 22.0288 17.5963Z" fill="#666666"/>
</svg>
