<svg width="24" height="24" viewBox="0 0 24 24" fill="none" xmlns="http://www.w3.org/2000/svg">
<rect width="24" height="24" rx="12" transform="matrix(-1 0 0 1 24 0)" fill="#F5F6F8"/>
<path fill-rule="evenodd" clip-rule="evenodd" d="M10.5216 7.19699L6.19895 11.5197C5.93368 11.7849 5.93368 12.215 6.19895 12.4803L10.5216 16.803C10.7869 17.0682 11.217 17.0682 11.4822 16.803C11.7475 16.5377 11.7475 16.1076 11.4822 15.8424L8.31909 12.6792L17.3208 12.6792C17.6959 12.6792 18 12.3751 18 12C18 11.6248 17.6959 11.3207 17.3208 11.3207L8.31909 11.3207L11.4822 8.15759C11.7475 7.89233 11.7475 7.46226 11.4822 7.19699C11.217 6.93173 10.7869 6.93173 10.5216 7.19699Z" fill="#666666"/>
</svg>
