<svg width="48" height="48" viewBox="0 0 48 48" fill="none" xmlns="http://www.w3.org/2000/svg">
<g clip-path="url(#clip0_504_10352)">
<rect width="48" height="48" rx="4" fill="white"/>
<path d="M15.5527 22.198V9.74744C15.5527 8.76451 16.3172 8 17.3002 8H37.7234C38.8155 8 39.58 8.76451 39.58 9.74744V30.1707C39.58 31.1536 38.8155 31.9181 37.8326 31.9181H31.0613L21.3411 15.4266C21.2319 15.3174 21.1227 15.099 20.9043 14.9898C20.3582 14.6621 19.7029 14.8806 19.3753 15.4266L15.5527 22.198Z" fill="#009983"/>
<path d="M21.4505 20.5597L31.826 38.3617C32.1536 38.9078 31.9352 39.5631 31.3891 39.8907C31.1707 39.9999 31.0614 39.9999 30.843 39.9999H10.0922C9.43686 39.9999 9 39.5631 9 38.9078C9 38.6894 9 38.4709 9.10921 38.3617L19.4846 20.5597C19.8123 20.0136 20.4676 19.9044 21.0137 20.1228C21.2321 20.232 21.3413 20.3412 21.4505 20.5597Z" fill="#33ad9c" fill-opacity="0.25"/>
</g>
<defs>
<clipPath id="clip0_504_10352">
<rect width="48" height="48" rx="4" fill="white"/>
</clipPath>
</defs>
</svg>
