<svg width="32" height="32" viewBox="0 0 32 32" fill="none" xmlns="http://www.w3.org/2000/svg">
<circle cx="16" cy="16" r="16" fill="white"/>
<path fill-rule="evenodd" clip-rule="evenodd" d="M18.8247 9.24252L24.5883 15.0061C25.1372 15.5551 25.1372 16.4451 24.5883 16.994L18.8247 22.7576C18.2758 23.3065 17.3857 23.3065 16.8368 22.7576C16.2879 22.2087 16.2879 21.3186 16.8368 20.7697L20.2008 17.4057L9.40566 17.4057C8.62934 17.4057 8 16.7764 8 16.0001C8 15.2237 8.62934 14.5944 9.40566 14.5944L20.2008 14.5944L16.8368 11.2304C16.2879 10.6815 16.2879 9.79146 16.8368 9.24252C17.3857 8.69357 18.2758 8.69357 18.8247 9.24252Z" fill="#009983"/>
</svg>
