<svg width="40" height="40" viewBox="0 0 40 40" fill="none" xmlns="http://www.w3.org/2000/svg">
<g clip-path="url(#clip0_3535_65482)">
<g filter="url(#filter0_d_3535_65482)">
<path d="M31.7399 30.3058C31.8369 30.6454 31.9158 31.0578 31.9764 31.5429C32.0371 32.0281 32.0674 32.5193 32.0674 33.0166C32.0674 33.5139 32.031 33.9808 31.9582 34.4174C31.8855 34.8541 31.7763 35.1815 31.6308 35.3999C31.5337 35.5454 31.2487 35.6909 30.7757 35.8365C30.3027 35.982 29.7144 36.1154 29.0109 36.2367C28.3075 36.358 27.5312 36.4732 26.6822 36.5824C25.8332 36.6916 24.9781 36.7825 24.117 36.8553C23.2558 36.9281 22.425 36.9887 21.6245 37.0372C20.824 37.0857 20.1205 37.11 19.5141 37.11C18.9077 37.11 18.2103 37.0857 17.4219 37.0372C16.6335 36.9887 15.8148 36.9281 14.9658 36.8553C14.1168 36.7825 13.2799 36.7037 12.4552 36.6188C11.6304 36.5339 10.8723 36.4369 10.181 36.3277C9.48966 36.2185 8.90748 36.1094 8.43446 36.0002C7.96144 35.8911 7.66428 35.788 7.543 35.6909C7.34894 35.5211 7.19126 35.0117 7.06997 34.1627C6.94869 33.3137 6.98507 32.2222 7.17913 30.888C7.30042 30.1118 7.6097 29.5296 8.10698 29.1415C8.60426 28.7534 9.19251 28.438 9.87172 28.1954C10.5509 27.9529 11.2483 27.7406 11.9639 27.5587C12.6795 27.3768 13.3163 27.1039 13.8742 26.74C14.3109 26.4489 14.6444 26.1821 14.8748 25.9395C15.1053 25.6969 15.2751 25.4544 15.3843 25.2118C15.4934 24.9692 15.548 24.7145 15.548 24.4477C15.548 24.1809 15.5359 23.8776 15.5116 23.538C15.4631 23.0529 15.2933 22.6708 15.0022 22.3919C14.7111 22.1129 14.3958 21.84 14.0561 21.5732C13.8863 21.4276 13.7347 21.2215 13.6013 20.9546C13.4679 20.6878 13.3527 20.421 13.2557 20.1541C13.1586 19.8631 13.0616 19.5356 12.9646 19.1717C12.819 19.1232 12.6735 19.0504 12.5279 18.9534C12.4066 18.8564 12.2793 18.7108 12.1459 18.5168C12.0125 18.3227 11.8851 18.0559 11.7638 17.7163C11.6425 17.3767 11.594 17.0553 11.6183 16.7521C11.6425 16.4488 11.7032 16.2002 11.8002 16.0061C11.8972 15.7636 12.0306 15.5453 12.2004 15.3512C12.1762 14.575 12.2126 13.7866 12.3096 12.9861C12.4066 12.3069 12.5582 11.5974 12.7644 10.8575C12.9706 10.1177 13.292 9.43241 13.7287 8.80172C14.1168 8.21954 14.5534 7.74653 15.0386 7.38267C15.5237 7.01881 16.021 6.73378 16.5304 6.5276C17.0398 6.32141 17.5492 6.18193 18.0586 6.10916C18.5681 6.03639 19.0532 6 19.5141 6C20.7512 6 21.855 6.2547 22.8253 6.76411C23.7956 7.27351 24.5112 7.8193 24.9721 8.40147C25.5057 9.05642 25.8999 9.7902 26.1546 10.6028C26.4093 11.4154 26.5973 12.1735 26.7186 12.8769C26.8399 13.7017 26.8884 14.5264 26.8641 15.3512C26.9854 15.4482 27.0946 15.5816 27.1916 15.7514C27.2644 15.897 27.3311 16.085 27.3917 16.3154C27.4524 16.5459 27.4585 16.8309 27.4099 17.1705C27.3614 17.6071 27.2644 17.9589 27.1188 18.2257C26.9733 18.4925 26.8278 18.6987 26.6822 18.8442C26.5124 19.014 26.3183 19.1232 26.1 19.1717C26.003 19.5356 25.906 19.8631 25.8089 20.1541C25.7119 20.421 25.5906 20.6878 25.4451 20.9546C25.2995 21.2215 25.1419 21.4155 24.9721 21.5368C24.778 21.7066 24.6021 21.8522 24.4445 21.9734C24.2868 22.0947 24.1473 22.2221 24.026 22.3555C23.9047 22.4889 23.8016 22.6405 23.7167 22.8103C23.6318 22.9801 23.5651 23.1863 23.5166 23.4289C23.4681 23.7442 23.4499 24.0656 23.462 24.3931C23.4741 24.7206 23.553 25.042 23.6985 25.3573C23.8441 25.6727 24.0806 25.9759 24.4081 26.267C24.7355 26.5581 25.1904 26.8128 25.7726 27.0311C26.282 27.2494 26.8459 27.4374 27.4645 27.5951C28.0831 27.7527 28.6774 27.9407 29.2474 28.1591C29.8175 28.3774 30.3269 28.6563 30.7757 28.9959C31.2244 29.3355 31.5459 29.7722 31.7399 30.3058Z" fill="url(#paint0_linear_3535_65482)"/>
</g>
</g>
<defs>
<filter id="filter0_d_3535_65482" x="1.89583" y="3.44792" width="35.2757" height="41.3182" filterUnits="userSpaceOnUse" color-interpolation-filters="sRGB">
<feFlood flood-opacity="0" result="BackgroundImageFix"/>
<feColorMatrix in="SourceAlpha" type="matrix" values="0 0 0 0 0 0 0 0 0 0 0 0 0 0 0 0 0 0 127 0" result="hardAlpha"/>
<feOffset dy="2.55208"/>
<feGaussianBlur stdDeviation="2.55208"/>
<feComposite in2="hardAlpha" operator="out"/>
<feColorMatrix type="matrix" values="0 0 0 0 0 0 0 0 0 0 0 0 0 0 0 0 0 0 0.18 0"/>
<feBlend mode="normal" in2="BackgroundImageFix" result="effect1_dropShadow_3535_65482"/>
<feBlend mode="normal" in="SourceGraphic" in2="effect1_dropShadow_3535_65482" result="shape"/>
</filter>
<linearGradient id="paint0_linear_3535_65482" x1="36.0364" y1="33.3552" x2="0.16792" y2="32.5092" gradientUnits="userSpaceOnUse">
<stop stop-color="#76F1B6"/>
<stop offset="0.553294" stop-color="#27B6FF"/>
<stop offset="1" stop-color="#2A87FA"/>
</linearGradient>
<clipPath id="clip0_3535_65482">
<rect width="31.11" height="31.11" fill="white" transform="translate(4.44507 6.44482)"/>
</clipPath>
</defs>
</svg>
